<mxfile host="65bd71144e">
    <diagram id="q5qzELJmM-EONyKrOwvD" name="Page-1">
        <mxGraphModel dx="1179" dy="787" grid="1" gridSize="10" guides="1" tooltips="1" connect="1" arrows="1" fold="1" page="1" pageScale="1" pageWidth="827" pageHeight="1169" math="0" shadow="0">
            <root>
                <mxCell id="0"/>
                <mxCell id="1" parent="0"/>
                <mxCell id="2" value="회원" style="whiteSpace=wrap;html=1;align=center;fontSize=20;" parent="1" vertex="1">
                    <mxGeometry x="210" y="183" width="100" height="40" as="geometry"/>
                </mxCell>
                <mxCell id="3" value="상품" style="whiteSpace=wrap;html=1;align=center;fontSize=20;" parent="1" vertex="1">
                    <mxGeometry x="560" y="180" width="100" height="40" as="geometry"/>
                </mxCell>
                <mxCell id="4" value="제조업체" style="whiteSpace=wrap;html=1;align=center;fontSize=20;" parent="1" vertex="1">
                    <mxGeometry x="537" y="549" width="100" height="40" as="geometry"/>
                </mxCell>
                <mxCell id="5" value="게시글" style="whiteSpace=wrap;html=1;align=center;fontSize=20;" parent="1" vertex="1">
                    <mxGeometry x="220" y="550.5" width="100" height="40" as="geometry"/>
                </mxCell>
                <mxCell id="6" value="아이디" style="ellipse;whiteSpace=wrap;html=1;align=center;fontStyle=4;fontSize=20;" parent="1" vertex="1">
                    <mxGeometry x="10" y="43" width="100" height="40" as="geometry"/>
                </mxCell>
                <mxCell id="7" value="비밀번호" style="ellipse;whiteSpace=wrap;html=1;align=center;fontSize=20;" parent="1" vertex="1">
                    <mxGeometry x="10" y="90" width="100" height="40" as="geometry"/>
                </mxCell>
                <mxCell id="8" value="이름" style="ellipse;whiteSpace=wrap;html=1;align=center;fontSize=20;" parent="1" vertex="1">
                    <mxGeometry x="10" y="136" width="100" height="40" as="geometry"/>
                </mxCell>
                <mxCell id="9" value="나이" style="ellipse;whiteSpace=wrap;html=1;align=center;fontSize=20;" parent="1" vertex="1">
                    <mxGeometry x="10" y="183" width="100" height="40" as="geometry"/>
                </mxCell>
                <mxCell id="10" value="직업" style="ellipse;whiteSpace=wrap;html=1;align=center;fontSize=20;" parent="1" vertex="1">
                    <mxGeometry x="10" y="230" width="100" height="40" as="geometry"/>
                </mxCell>
                <mxCell id="11" value="등급" style="ellipse;whiteSpace=wrap;html=1;align=center;fontSize=20;" parent="1" vertex="1">
                    <mxGeometry x="10" y="276" width="100" height="40" as="geometry"/>
                </mxCell>
                <mxCell id="12" value="적립금" style="ellipse;whiteSpace=wrap;html=1;align=center;fontSize=20;" parent="1" vertex="1">
                    <mxGeometry x="10" y="323" width="100" height="40" as="geometry"/>
                </mxCell>
                <mxCell id="15" value="" style="endArrow=none;html=1;rounded=0;fontSize=20;entryX=0.25;entryY=0;entryDx=0;entryDy=0;" parent="1" target="2" edge="1">
                    <mxGeometry relative="1" as="geometry">
                        <mxPoint x="110" y="62.5" as="sourcePoint"/>
                        <mxPoint x="270" y="62.5" as="targetPoint"/>
                    </mxGeometry>
                </mxCell>
                <mxCell id="17" value="" style="endArrow=none;html=1;rounded=0;fontSize=20;entryX=0;entryY=0.25;entryDx=0;entryDy=0;" parent="1" target="2" edge="1">
                    <mxGeometry relative="1" as="geometry">
                        <mxPoint x="110" y="112.5" as="sourcePoint"/>
                        <mxPoint x="235" y="223" as="targetPoint"/>
                    </mxGeometry>
                </mxCell>
                <mxCell id="18" value="" style="endArrow=none;html=1;rounded=0;fontSize=20;entryX=0;entryY=0.5;entryDx=0;entryDy=0;" parent="1" target="2" edge="1">
                    <mxGeometry relative="1" as="geometry">
                        <mxPoint x="110" y="205.5" as="sourcePoint"/>
                        <mxPoint x="235" y="316" as="targetPoint"/>
                    </mxGeometry>
                </mxCell>
                <mxCell id="19" value="" style="endArrow=none;html=1;rounded=0;fontSize=20;entryX=0;entryY=0.5;entryDx=0;entryDy=0;" parent="1" target="2" edge="1">
                    <mxGeometry relative="1" as="geometry">
                        <mxPoint x="110" y="159.5" as="sourcePoint"/>
                        <mxPoint x="235" y="270" as="targetPoint"/>
                    </mxGeometry>
                </mxCell>
                <mxCell id="20" value="" style="endArrow=none;html=1;rounded=0;fontSize=20;entryX=0;entryY=0.75;entryDx=0;entryDy=0;" parent="1" target="2" edge="1">
                    <mxGeometry relative="1" as="geometry">
                        <mxPoint x="110" y="253" as="sourcePoint"/>
                        <mxPoint x="235" y="363" as="targetPoint"/>
                    </mxGeometry>
                </mxCell>
                <mxCell id="22" value="" style="endArrow=none;html=1;rounded=0;fontSize=20;entryX=0.25;entryY=1;entryDx=0;entryDy=0;exitX=1;exitY=0.5;exitDx=0;exitDy=0;" parent="1" source="11" target="2" edge="1">
                    <mxGeometry relative="1" as="geometry">
                        <mxPoint x="120" y="263" as="sourcePoint"/>
                        <mxPoint x="220" y="213" as="targetPoint"/>
                    </mxGeometry>
                </mxCell>
                <mxCell id="23" value="" style="endArrow=none;html=1;rounded=0;fontSize=20;entryX=0.25;entryY=1;entryDx=0;entryDy=0;exitX=1;exitY=0.5;exitDx=0;exitDy=0;" parent="1" source="12" target="2" edge="1">
                    <mxGeometry relative="1" as="geometry">
                        <mxPoint x="120" y="306" as="sourcePoint"/>
                        <mxPoint x="245" y="223" as="targetPoint"/>
                    </mxGeometry>
                </mxCell>
                <mxCell id="24" value="상품명" style="ellipse;whiteSpace=wrap;html=1;align=center;fontSize=20;" parent="1" vertex="1">
                    <mxGeometry x="720" y="140" width="100" height="40" as="geometry"/>
                </mxCell>
                <mxCell id="25" value="재고량" style="ellipse;whiteSpace=wrap;html=1;align=center;fontSize=20;" parent="1" vertex="1">
                    <mxGeometry x="720" y="186" width="100" height="40" as="geometry"/>
                </mxCell>
                <mxCell id="26" value="단가" style="ellipse;whiteSpace=wrap;html=1;align=center;fontSize=20;" parent="1" vertex="1">
                    <mxGeometry x="720" y="233" width="100" height="40" as="geometry"/>
                </mxCell>
                <mxCell id="28" value="상품번호" style="ellipse;whiteSpace=wrap;html=1;align=center;fontStyle=4;fontSize=20;" parent="1" vertex="1">
                    <mxGeometry x="720" y="93" width="100" height="40" as="geometry"/>
                </mxCell>
                <mxCell id="29" value="" style="endArrow=none;html=1;rounded=0;fontSize=20;entryX=0;entryY=0.5;entryDx=0;entryDy=0;" parent="1" target="28" edge="1">
                    <mxGeometry relative="1" as="geometry">
                        <mxPoint x="660" y="200" as="sourcePoint"/>
                        <mxPoint x="720" y="112.5" as="targetPoint"/>
                    </mxGeometry>
                </mxCell>
                <mxCell id="30" value="" style="endArrow=none;html=1;rounded=0;fontSize=20;entryX=1;entryY=0.5;entryDx=0;entryDy=0;exitX=0;exitY=0.5;exitDx=0;exitDy=0;" parent="1" source="24" target="3" edge="1">
                    <mxGeometry relative="1" as="geometry">
                        <mxPoint x="390" y="200" as="sourcePoint"/>
                        <mxPoint x="550" y="200" as="targetPoint"/>
                    </mxGeometry>
                </mxCell>
                <mxCell id="31" value="" style="endArrow=none;html=1;rounded=0;fontSize=20;entryX=1;entryY=0.5;entryDx=0;entryDy=0;exitX=0;exitY=0.5;exitDx=0;exitDy=0;" parent="1" source="25" target="3" edge="1">
                    <mxGeometry relative="1" as="geometry">
                        <mxPoint x="730" y="170" as="sourcePoint"/>
                        <mxPoint x="660" y="210" as="targetPoint"/>
                    </mxGeometry>
                </mxCell>
                <mxCell id="32" value="" style="endArrow=none;html=1;rounded=0;fontSize=20;entryX=1;entryY=0.5;entryDx=0;entryDy=0;exitX=0;exitY=0.5;exitDx=0;exitDy=0;" parent="1" source="26" target="3" edge="1">
                    <mxGeometry relative="1" as="geometry">
                        <mxPoint x="730" y="216" as="sourcePoint"/>
                        <mxPoint x="660" y="210" as="targetPoint"/>
                    </mxGeometry>
                </mxCell>
                <mxCell id="33" value="제조업체명" style="ellipse;whiteSpace=wrap;html=1;align=center;fontSize=20;" parent="1" vertex="1">
                    <mxGeometry x="697" y="469" width="130" height="40" as="geometry"/>
                </mxCell>
                <mxCell id="34" value="전화번호" style="ellipse;whiteSpace=wrap;html=1;align=center;fontSize=20;" parent="1" vertex="1">
                    <mxGeometry x="697" y="515" width="130" height="40" as="geometry"/>
                </mxCell>
                <mxCell id="35" value="위치" style="ellipse;whiteSpace=wrap;html=1;align=center;fontSize=20;" parent="1" vertex="1">
                    <mxGeometry x="697" y="562" width="130" height="40" as="geometry"/>
                </mxCell>
                <mxCell id="36" value="담당자" style="ellipse;whiteSpace=wrap;html=1;align=center;fontSize=20;" parent="1" vertex="1">
                    <mxGeometry x="697" y="609" width="130" height="40" as="geometry"/>
                </mxCell>
                <mxCell id="37" value="" style="endArrow=none;html=1;rounded=0;fontSize=20;entryX=1;entryY=0.5;entryDx=0;entryDy=0;exitX=0;exitY=0.5;exitDx=0;exitDy=0;" parent="1" source="33" target="4" edge="1">
                    <mxGeometry relative="1" as="geometry">
                        <mxPoint x="367" y="359" as="sourcePoint"/>
                        <mxPoint x="527" y="359" as="targetPoint"/>
                    </mxGeometry>
                </mxCell>
                <mxCell id="38" value="" style="endArrow=none;html=1;rounded=0;fontSize=20;entryX=1;entryY=0.5;entryDx=0;entryDy=0;exitX=0;exitY=0.5;exitDx=0;exitDy=0;" parent="1" source="34" target="4" edge="1">
                    <mxGeometry relative="1" as="geometry">
                        <mxPoint x="707" y="499" as="sourcePoint"/>
                        <mxPoint x="647" y="579" as="targetPoint"/>
                    </mxGeometry>
                </mxCell>
                <mxCell id="39" value="" style="endArrow=none;html=1;rounded=0;fontSize=20;entryX=1;entryY=0.5;entryDx=0;entryDy=0;exitX=0;exitY=0.5;exitDx=0;exitDy=0;" parent="1" source="35" target="4" edge="1">
                    <mxGeometry relative="1" as="geometry">
                        <mxPoint x="707" y="545" as="sourcePoint"/>
                        <mxPoint x="647" y="579" as="targetPoint"/>
                    </mxGeometry>
                </mxCell>
                <mxCell id="40" value="" style="endArrow=none;html=1;rounded=0;fontSize=20;entryX=1;entryY=0.5;entryDx=0;entryDy=0;exitX=0;exitY=0.5;exitDx=0;exitDy=0;" parent="1" source="36" target="4" edge="1">
                    <mxGeometry relative="1" as="geometry">
                        <mxPoint x="707" y="592" as="sourcePoint"/>
                        <mxPoint x="647" y="579" as="targetPoint"/>
                    </mxGeometry>
                </mxCell>
                <mxCell id="42" value="글제목" style="ellipse;whiteSpace=wrap;html=1;align=center;fontSize=20;direction=east;" parent="1" vertex="1">
                    <mxGeometry x="20" y="539.5" width="130" height="40" as="geometry"/>
                </mxCell>
                <mxCell id="43" value="글내용" style="ellipse;whiteSpace=wrap;html=1;align=center;fontSize=20;direction=east;" parent="1" vertex="1">
                    <mxGeometry x="20" y="586.5" width="130" height="40" as="geometry"/>
                </mxCell>
                <mxCell id="44" value="작성자" style="ellipse;whiteSpace=wrap;html=1;align=center;fontSize=20;direction=east;" parent="1" vertex="1">
                    <mxGeometry x="20" y="633.5" width="130" height="40" as="geometry"/>
                </mxCell>
                <mxCell id="45" value="" style="endArrow=none;html=1;rounded=0;fontSize=20;entryX=0;entryY=0.5;entryDx=0;entryDy=0;exitX=1;exitY=0.5;exitDx=0;exitDy=0;" parent="1" source="49" target="5" edge="1">
                    <mxGeometry relative="1" as="geometry">
                        <mxPoint x="152.33999999999992" y="520.5" as="sourcePoint"/>
                        <mxPoint y="593.5" as="targetPoint"/>
                    </mxGeometry>
                </mxCell>
                <mxCell id="46" value="" style="endArrow=none;html=1;rounded=0;fontSize=20;entryX=1;entryY=0.5;entryDx=0;entryDy=0;exitX=0;exitY=0.5;exitDx=0;exitDy=0;" parent="1" source="5" target="42" edge="1">
                    <mxGeometry relative="1" as="geometry">
                        <mxPoint x="70" y="523.5" as="sourcePoint"/>
                        <mxPoint y="593.5" as="targetPoint"/>
                    </mxGeometry>
                </mxCell>
                <mxCell id="47" value="" style="endArrow=none;html=1;rounded=0;fontSize=20;entryX=1;entryY=0.5;entryDx=0;entryDy=0;exitX=0;exitY=0.75;exitDx=0;exitDy=0;" parent="1" source="5" target="43" edge="1">
                    <mxGeometry relative="1" as="geometry">
                        <mxPoint x="70" y="569.5" as="sourcePoint"/>
                        <mxPoint y="593.5" as="targetPoint"/>
                    </mxGeometry>
                </mxCell>
                <mxCell id="48" value="" style="endArrow=none;html=1;rounded=0;fontSize=20;entryX=1;entryY=0.5;entryDx=0;entryDy=0;exitX=0;exitY=0.75;exitDx=0;exitDy=0;" parent="1" source="5" target="44" edge="1">
                    <mxGeometry relative="1" as="geometry">
                        <mxPoint x="70" y="616.5" as="sourcePoint"/>
                        <mxPoint y="593.5" as="targetPoint"/>
                    </mxGeometry>
                </mxCell>
                <mxCell id="49" value="글번호" style="ellipse;whiteSpace=wrap;html=1;align=center;fontStyle=4;fontSize=20;" parent="1" vertex="1">
                    <mxGeometry x="20" y="490.5" width="120" height="40" as="geometry"/>
                </mxCell>
                <mxCell id="52" value="" style="endArrow=none;html=1;rounded=0;fontSize=20;entryX=0;entryY=0.5;entryDx=0;entryDy=0;" parent="1" target="3" edge="1">
                    <mxGeometry relative="1" as="geometry">
                        <mxPoint x="310" y="204" as="sourcePoint"/>
                        <mxPoint x="550" y="201" as="targetPoint"/>
                    </mxGeometry>
                </mxCell>
                <mxCell id="53" value="M" style="resizable=0;html=1;align=left;verticalAlign=bottom;fontSize=20;" parent="52" connectable="0" vertex="1">
                    <mxGeometry x="-1" relative="1" as="geometry">
                        <mxPoint x="6" y="-1" as="offset"/>
                    </mxGeometry>
                </mxCell>
                <mxCell id="54" value="N" style="resizable=0;html=1;align=right;verticalAlign=bottom;fontSize=20;" parent="52" connectable="0" vertex="1">
                    <mxGeometry x="1" relative="1" as="geometry">
                        <mxPoint x="-5" y="1" as="offset"/>
                    </mxGeometry>
                </mxCell>
                <mxCell id="50" value="주문" style="shape=rhombus;perimeter=rhombusPerimeter;whiteSpace=wrap;html=1;align=center;fontSize=20;" parent="1" vertex="1">
                    <mxGeometry x="390" y="173" width="120" height="60" as="geometry"/>
                </mxCell>
                <mxCell id="58" value="주문수량" style="ellipse;whiteSpace=wrap;html=1;align=center;fontSize=20;" parent="1" vertex="1">
                    <mxGeometry x="450" y="60" width="100" height="50" as="geometry"/>
                </mxCell>
                <mxCell id="60" value="" style="endArrow=none;html=1;rounded=0;fontSize=20;exitX=0.5;exitY=1;exitDx=0;exitDy=0;" parent="1" source="56" target="50" edge="1">
                    <mxGeometry relative="1" as="geometry">
                        <mxPoint x="310" y="330" as="sourcePoint"/>
                        <mxPoint x="470" y="330" as="targetPoint"/>
                    </mxGeometry>
                </mxCell>
                <mxCell id="61" value="" style="endArrow=none;html=1;rounded=0;fontSize=20;exitX=0.5;exitY=1;exitDx=0;exitDy=0;entryX=0;entryY=0;entryDx=0;entryDy=0;" parent="1" source="55" target="50" edge="1">
                    <mxGeometry relative="1" as="geometry">
                        <mxPoint x="530" y="160" as="sourcePoint"/>
                        <mxPoint x="430" y="180" as="targetPoint"/>
                    </mxGeometry>
                </mxCell>
                <mxCell id="62" value="" style="endArrow=none;html=1;rounded=0;fontSize=20;entryX=0.5;entryY=0;entryDx=0;entryDy=0;exitX=0.5;exitY=1;exitDx=0;exitDy=0;" parent="1" source="57" target="50" edge="1">
                    <mxGeometry relative="1" as="geometry">
                        <mxPoint x="310" y="330" as="sourcePoint"/>
                        <mxPoint x="470" y="330" as="targetPoint"/>
                    </mxGeometry>
                </mxCell>
                <mxCell id="63" value="" style="endArrow=none;html=1;rounded=0;fontSize=20;exitX=0;exitY=1;exitDx=0;exitDy=0;entryX=0.5;entryY=0;entryDx=0;entryDy=0;" parent="1" source="58" target="50" edge="1">
                    <mxGeometry relative="1" as="geometry">
                        <mxPoint x="420" y="103" as="sourcePoint"/>
                        <mxPoint x="450" y="170" as="targetPoint"/>
                    </mxGeometry>
                </mxCell>
                <mxCell id="56" value="주문번호" style="ellipse;whiteSpace=wrap;html=1;align=center;fontStyle=4;fontSize=20;" parent="1" vertex="1">
                    <mxGeometry x="490" y="120" width="100" height="40" as="geometry"/>
                </mxCell>
                <mxCell id="57" value="배송지" style="ellipse;whiteSpace=wrap;html=1;align=center;fontSize=20;" parent="1" vertex="1">
                    <mxGeometry x="350" y="60" width="100" height="50" as="geometry"/>
                </mxCell>
                <mxCell id="55" value="주문일자" style="ellipse;whiteSpace=wrap;html=1;align=center;fontSize=20;" parent="1" vertex="1">
                    <mxGeometry x="320" y="126" width="100" height="50" as="geometry"/>
                </mxCell>
                <mxCell id="64" value="공급" style="shape=rhombus;perimeter=rhombusPerimeter;whiteSpace=wrap;html=1;align=center;fontSize=20;" parent="1" vertex="1">
                    <mxGeometry x="540" y="350" width="120" height="60" as="geometry"/>
                </mxCell>
                <mxCell id="65" value="공급량" style="ellipse;whiteSpace=wrap;html=1;align=center;fontSize=20;" parent="1" vertex="1">
                    <mxGeometry x="430" y="340" width="100" height="40" as="geometry"/>
                </mxCell>
                <mxCell id="66" value="공급일자" style="ellipse;whiteSpace=wrap;html=1;align=center;fontSize=20;" parent="1" vertex="1">
                    <mxGeometry x="430" y="390" width="100" height="40" as="geometry"/>
                </mxCell>
                <mxCell id="67" value="" style="endArrow=none;html=1;rounded=0;fontSize=20;entryX=1;entryY=0.5;entryDx=0;entryDy=0;exitX=0;exitY=0;exitDx=0;exitDy=0;" parent="1" source="64" target="65" edge="1">
                    <mxGeometry relative="1" as="geometry">
                        <mxPoint x="310" y="420" as="sourcePoint"/>
                        <mxPoint x="470" y="420" as="targetPoint"/>
                    </mxGeometry>
                </mxCell>
                <mxCell id="68" value="" style="endArrow=none;html=1;rounded=0;fontSize=20;entryX=1;entryY=0.5;entryDx=0;entryDy=0;exitX=0;exitY=1;exitDx=0;exitDy=0;" parent="1" source="64" target="66" edge="1">
                    <mxGeometry relative="1" as="geometry">
                        <mxPoint x="580" y="375" as="sourcePoint"/>
                        <mxPoint x="540" y="370" as="targetPoint"/>
                    </mxGeometry>
                </mxCell>
                <mxCell id="69" value="" style="shape=link;html=1;rounded=0;fontSize=20;exitX=0.5;exitY=1;exitDx=0;exitDy=0;" parent="1" source="3" target="64" edge="1">
                    <mxGeometry relative="1" as="geometry">
                        <mxPoint x="310" y="420" as="sourcePoint"/>
                        <mxPoint x="470" y="420" as="targetPoint"/>
                    </mxGeometry>
                </mxCell>
                <mxCell id="70" value="N" style="resizable=0;html=1;align=right;verticalAlign=bottom;fontSize=20;" parent="69" connectable="0" vertex="1">
                    <mxGeometry x="1" relative="1" as="geometry">
                        <mxPoint x="-2" y="-98" as="offset"/>
                    </mxGeometry>
                </mxCell>
                <mxCell id="72" value="" style="endArrow=none;html=1;rounded=0;fontSize=20;entryX=0.5;entryY=0;entryDx=0;entryDy=0;" parent="1" target="4" edge="1">
                    <mxGeometry relative="1" as="geometry">
                        <mxPoint x="600" y="410" as="sourcePoint"/>
                        <mxPoint x="760" y="410" as="targetPoint"/>
                    </mxGeometry>
                </mxCell>
                <mxCell id="73" value="1" style="resizable=0;html=1;align=right;verticalAlign=bottom;fontSize=20;" parent="72" connectable="0" vertex="1">
                    <mxGeometry x="1" relative="1" as="geometry">
                        <mxPoint x="-7" y="-10" as="offset"/>
                    </mxGeometry>
                </mxCell>
                <mxCell id="76" value="작성" style="shape=rhombus;perimeter=rhombusPerimeter;whiteSpace=wrap;html=1;align=center;fontSize=20;" parent="1" vertex="1">
                    <mxGeometry x="210" y="340" width="120" height="60" as="geometry"/>
                </mxCell>
                <mxCell id="77" value="" style="endArrow=none;html=1;rounded=0;fontSize=20;exitX=0.5;exitY=1;exitDx=0;exitDy=0;" parent="1" source="2" target="76" edge="1">
                    <mxGeometry relative="1" as="geometry">
                        <mxPoint x="310" y="420" as="sourcePoint"/>
                        <mxPoint x="470" y="420" as="targetPoint"/>
                    </mxGeometry>
                </mxCell>
                <mxCell id="78" value="1" style="resizable=0;html=1;align=right;verticalAlign=bottom;fontSize=20;" parent="77" connectable="0" vertex="1">
                    <mxGeometry x="1" relative="1" as="geometry">
                        <mxPoint x="12" y="-88" as="offset"/>
                    </mxGeometry>
                </mxCell>
                <mxCell id="79" value="" style="shape=link;html=1;rounded=0;fontSize=20;exitX=0.5;exitY=1;exitDx=0;exitDy=0;" parent="1" target="5" edge="1">
                    <mxGeometry relative="1" as="geometry">
                        <mxPoint x="274.09" y="399.09000000000003" as="sourcePoint"/>
                        <mxPoint x="265.90818181818173" y="529.9990909090909" as="targetPoint"/>
                    </mxGeometry>
                </mxCell>
                <mxCell id="80" value="N" style="resizable=0;html=1;align=right;verticalAlign=bottom;fontSize=20;" parent="79" connectable="0" vertex="1">
                    <mxGeometry x="1" relative="1" as="geometry">
                        <mxPoint x="29" y="3" as="offset"/>
                    </mxGeometry>
                </mxCell>
                <mxCell id="82" value="업체코드" style="ellipse;whiteSpace=wrap;html=1;align=center;fontStyle=4;fontSize=20;" parent="1" vertex="1">
                    <mxGeometry x="712" y="420" width="100" height="40" as="geometry"/>
                </mxCell>
                <mxCell id="83" value="" style="endArrow=none;html=1;rounded=0;fontSize=20;exitX=0;exitY=0.5;exitDx=0;exitDy=0;" parent="1" source="82" edge="1">
                    <mxGeometry relative="1" as="geometry">
                        <mxPoint x="707" y="499" as="sourcePoint"/>
                        <mxPoint x="640" y="570" as="targetPoint"/>
                    </mxGeometry>
                </mxCell>
            </root>
        </mxGraphModel>
    </diagram>
    <diagram id="zfgtDUeQF6knBdDJuYFh" name="Page-2">
        <mxGraphModel dx="1179" dy="787" grid="1" gridSize="10" guides="1" tooltips="1" connect="1" arrows="1" fold="1" page="1" pageScale="1" pageWidth="827" pageHeight="1169" math="0" shadow="0">
            <root>
                <mxCell id="0"/>
                <mxCell id="1" parent="0"/>
                <mxCell id="Y1advHwtuHt-in-1cHeR-1" value="상품" style="shape=table;startSize=30;container=1;collapsible=1;childLayout=tableLayout;fixedRows=1;rowLines=0;fontStyle=1;align=center;resizeLast=1;fontSize=20;" parent="1" vertex="1">
                    <mxGeometry x="520" y="50" width="180" height="150" as="geometry"/>
                </mxCell>
                <mxCell id="Y1advHwtuHt-in-1cHeR-2" value="" style="shape=tableRow;horizontal=0;startSize=0;swimlaneHead=0;swimlaneBody=0;fillColor=none;collapsible=0;dropTarget=0;points=[[0,0.5],[1,0.5]];portConstraint=eastwest;top=0;left=0;right=0;bottom=1;fontSize=20;" parent="Y1advHwtuHt-in-1cHeR-1" vertex="1">
                    <mxGeometry y="30" width="180" height="30" as="geometry"/>
                </mxCell>
                <mxCell id="Y1advHwtuHt-in-1cHeR-3" value="PK" style="shape=partialRectangle;connectable=0;fillColor=none;top=0;left=0;bottom=0;right=0;fontStyle=1;overflow=hidden;fontSize=20;" parent="Y1advHwtuHt-in-1cHeR-2" vertex="1">
                    <mxGeometry width="30" height="30" as="geometry">
                        <mxRectangle width="30" height="30" as="alternateBounds"/>
                    </mxGeometry>
                </mxCell>
                <mxCell id="Y1advHwtuHt-in-1cHeR-4" value="상품번호" style="shape=partialRectangle;connectable=0;fillColor=none;top=0;left=0;bottom=0;right=0;align=left;spacingLeft=6;fontStyle=5;overflow=hidden;fontSize=20;" parent="Y1advHwtuHt-in-1cHeR-2" vertex="1">
                    <mxGeometry x="30" width="150" height="30" as="geometry">
                        <mxRectangle width="150" height="30" as="alternateBounds"/>
                    </mxGeometry>
                </mxCell>
                <mxCell id="Y1advHwtuHt-in-1cHeR-5" value="" style="shape=tableRow;horizontal=0;startSize=0;swimlaneHead=0;swimlaneBody=0;fillColor=none;collapsible=0;dropTarget=0;points=[[0,0.5],[1,0.5]];portConstraint=eastwest;top=0;left=0;right=0;bottom=0;fontSize=20;" parent="Y1advHwtuHt-in-1cHeR-1" vertex="1">
                    <mxGeometry y="60" width="180" height="30" as="geometry"/>
                </mxCell>
                <mxCell id="Y1advHwtuHt-in-1cHeR-6" value="" style="shape=partialRectangle;connectable=0;fillColor=none;top=0;left=0;bottom=0;right=0;editable=1;overflow=hidden;fontSize=20;" parent="Y1advHwtuHt-in-1cHeR-5" vertex="1">
                    <mxGeometry width="30" height="30" as="geometry">
                        <mxRectangle width="30" height="30" as="alternateBounds"/>
                    </mxGeometry>
                </mxCell>
                <mxCell id="Y1advHwtuHt-in-1cHeR-7" value="상품명" style="shape=partialRectangle;connectable=0;fillColor=none;top=0;left=0;bottom=0;right=0;align=left;spacingLeft=6;overflow=hidden;fontSize=20;" parent="Y1advHwtuHt-in-1cHeR-5" vertex="1">
                    <mxGeometry x="30" width="150" height="30" as="geometry">
                        <mxRectangle width="150" height="30" as="alternateBounds"/>
                    </mxGeometry>
                </mxCell>
                <mxCell id="Y1advHwtuHt-in-1cHeR-8" value="" style="shape=tableRow;horizontal=0;startSize=0;swimlaneHead=0;swimlaneBody=0;fillColor=none;collapsible=0;dropTarget=0;points=[[0,0.5],[1,0.5]];portConstraint=eastwest;top=0;left=0;right=0;bottom=0;fontSize=20;" parent="Y1advHwtuHt-in-1cHeR-1" vertex="1">
                    <mxGeometry y="90" width="180" height="30" as="geometry"/>
                </mxCell>
                <mxCell id="Y1advHwtuHt-in-1cHeR-9" value="" style="shape=partialRectangle;connectable=0;fillColor=none;top=0;left=0;bottom=0;right=0;editable=1;overflow=hidden;fontSize=20;" parent="Y1advHwtuHt-in-1cHeR-8" vertex="1">
                    <mxGeometry width="30" height="30" as="geometry">
                        <mxRectangle width="30" height="30" as="alternateBounds"/>
                    </mxGeometry>
                </mxCell>
                <mxCell id="Y1advHwtuHt-in-1cHeR-10" value="재고량" style="shape=partialRectangle;connectable=0;fillColor=none;top=0;left=0;bottom=0;right=0;align=left;spacingLeft=6;overflow=hidden;fontSize=20;" parent="Y1advHwtuHt-in-1cHeR-8" vertex="1">
                    <mxGeometry x="30" width="150" height="30" as="geometry">
                        <mxRectangle width="150" height="30" as="alternateBounds"/>
                    </mxGeometry>
                </mxCell>
                <mxCell id="Y1advHwtuHt-in-1cHeR-11" value="" style="shape=tableRow;horizontal=0;startSize=0;swimlaneHead=0;swimlaneBody=0;fillColor=none;collapsible=0;dropTarget=0;points=[[0,0.5],[1,0.5]];portConstraint=eastwest;top=0;left=0;right=0;bottom=0;fontSize=20;" parent="Y1advHwtuHt-in-1cHeR-1" vertex="1">
                    <mxGeometry y="120" width="180" height="30" as="geometry"/>
                </mxCell>
                <mxCell id="Y1advHwtuHt-in-1cHeR-12" value="" style="shape=partialRectangle;connectable=0;fillColor=none;top=0;left=0;bottom=0;right=0;editable=1;overflow=hidden;fontSize=20;" parent="Y1advHwtuHt-in-1cHeR-11" vertex="1">
                    <mxGeometry width="30" height="30" as="geometry">
                        <mxRectangle width="30" height="30" as="alternateBounds"/>
                    </mxGeometry>
                </mxCell>
                <mxCell id="Y1advHwtuHt-in-1cHeR-13" value="단가" style="shape=partialRectangle;connectable=0;fillColor=none;top=0;left=0;bottom=0;right=0;align=left;spacingLeft=6;overflow=hidden;fontSize=20;" parent="Y1advHwtuHt-in-1cHeR-11" vertex="1">
                    <mxGeometry x="30" width="150" height="30" as="geometry">
                        <mxRectangle width="150" height="30" as="alternateBounds"/>
                    </mxGeometry>
                </mxCell>
                <mxCell id="Y1advHwtuHt-in-1cHeR-14" value="제조업체" style="shape=table;startSize=30;container=1;collapsible=1;childLayout=tableLayout;fixedRows=1;rowLines=0;fontStyle=1;align=center;resizeLast=1;fontSize=20;" parent="1" vertex="1">
                    <mxGeometry x="530" y="340" width="180" height="180" as="geometry"/>
                </mxCell>
                <mxCell id="Y1advHwtuHt-in-1cHeR-15" value="" style="shape=tableRow;horizontal=0;startSize=0;swimlaneHead=0;swimlaneBody=0;fillColor=none;collapsible=0;dropTarget=0;points=[[0,0.5],[1,0.5]];portConstraint=eastwest;top=0;left=0;right=0;bottom=1;fontSize=20;" parent="Y1advHwtuHt-in-1cHeR-14" vertex="1">
                    <mxGeometry y="30" width="180" height="30" as="geometry"/>
                </mxCell>
                <mxCell id="Y1advHwtuHt-in-1cHeR-16" value="PK" style="shape=partialRectangle;connectable=0;fillColor=none;top=0;left=0;bottom=0;right=0;fontStyle=1;overflow=hidden;fontSize=20;" parent="Y1advHwtuHt-in-1cHeR-15" vertex="1">
                    <mxGeometry width="30" height="30" as="geometry">
                        <mxRectangle width="30" height="30" as="alternateBounds"/>
                    </mxGeometry>
                </mxCell>
                <mxCell id="Y1advHwtuHt-in-1cHeR-17" value="업체코드" style="shape=partialRectangle;connectable=0;fillColor=none;top=0;left=0;bottom=0;right=0;align=left;spacingLeft=6;fontStyle=5;overflow=hidden;fontSize=20;" parent="Y1advHwtuHt-in-1cHeR-15" vertex="1">
                    <mxGeometry x="30" width="150" height="30" as="geometry">
                        <mxRectangle width="150" height="30" as="alternateBounds"/>
                    </mxGeometry>
                </mxCell>
                <mxCell id="Y1advHwtuHt-in-1cHeR-18" value="" style="shape=tableRow;horizontal=0;startSize=0;swimlaneHead=0;swimlaneBody=0;fillColor=none;collapsible=0;dropTarget=0;points=[[0,0.5],[1,0.5]];portConstraint=eastwest;top=0;left=0;right=0;bottom=0;fontSize=20;" parent="Y1advHwtuHt-in-1cHeR-14" vertex="1">
                    <mxGeometry y="60" width="180" height="30" as="geometry"/>
                </mxCell>
                <mxCell id="Y1advHwtuHt-in-1cHeR-19" value="" style="shape=partialRectangle;connectable=0;fillColor=none;top=0;left=0;bottom=0;right=0;editable=1;overflow=hidden;fontSize=20;" parent="Y1advHwtuHt-in-1cHeR-18" vertex="1">
                    <mxGeometry width="30" height="30" as="geometry">
                        <mxRectangle width="30" height="30" as="alternateBounds"/>
                    </mxGeometry>
                </mxCell>
                <mxCell id="Y1advHwtuHt-in-1cHeR-20" value="업체명" style="shape=partialRectangle;connectable=0;fillColor=none;top=0;left=0;bottom=0;right=0;align=left;spacingLeft=6;overflow=hidden;fontSize=20;" parent="Y1advHwtuHt-in-1cHeR-18" vertex="1">
                    <mxGeometry x="30" width="150" height="30" as="geometry">
                        <mxRectangle width="150" height="30" as="alternateBounds"/>
                    </mxGeometry>
                </mxCell>
                <mxCell id="Y1advHwtuHt-in-1cHeR-21" value="" style="shape=tableRow;horizontal=0;startSize=0;swimlaneHead=0;swimlaneBody=0;fillColor=none;collapsible=0;dropTarget=0;points=[[0,0.5],[1,0.5]];portConstraint=eastwest;top=0;left=0;right=0;bottom=0;fontSize=20;" parent="Y1advHwtuHt-in-1cHeR-14" vertex="1">
                    <mxGeometry y="90" width="180" height="30" as="geometry"/>
                </mxCell>
                <mxCell id="Y1advHwtuHt-in-1cHeR-22" value="" style="shape=partialRectangle;connectable=0;fillColor=none;top=0;left=0;bottom=0;right=0;editable=1;overflow=hidden;fontSize=20;" parent="Y1advHwtuHt-in-1cHeR-21" vertex="1">
                    <mxGeometry width="30" height="30" as="geometry">
                        <mxRectangle width="30" height="30" as="alternateBounds"/>
                    </mxGeometry>
                </mxCell>
                <mxCell id="Y1advHwtuHt-in-1cHeR-23" value="전화번호" style="shape=partialRectangle;connectable=0;fillColor=none;top=0;left=0;bottom=0;right=0;align=left;spacingLeft=6;overflow=hidden;fontSize=20;" parent="Y1advHwtuHt-in-1cHeR-21" vertex="1">
                    <mxGeometry x="30" width="150" height="30" as="geometry">
                        <mxRectangle width="150" height="30" as="alternateBounds"/>
                    </mxGeometry>
                </mxCell>
                <mxCell id="Y1advHwtuHt-in-1cHeR-24" value="" style="shape=tableRow;horizontal=0;startSize=0;swimlaneHead=0;swimlaneBody=0;fillColor=none;collapsible=0;dropTarget=0;points=[[0,0.5],[1,0.5]];portConstraint=eastwest;top=0;left=0;right=0;bottom=0;fontSize=20;" parent="Y1advHwtuHt-in-1cHeR-14" vertex="1">
                    <mxGeometry y="120" width="180" height="30" as="geometry"/>
                </mxCell>
                <mxCell id="Y1advHwtuHt-in-1cHeR-25" value="" style="shape=partialRectangle;connectable=0;fillColor=none;top=0;left=0;bottom=0;right=0;editable=1;overflow=hidden;fontSize=20;" parent="Y1advHwtuHt-in-1cHeR-24" vertex="1">
                    <mxGeometry width="30" height="30" as="geometry">
                        <mxRectangle width="30" height="30" as="alternateBounds"/>
                    </mxGeometry>
                </mxCell>
                <mxCell id="Y1advHwtuHt-in-1cHeR-26" value="위치" style="shape=partialRectangle;connectable=0;fillColor=none;top=0;left=0;bottom=0;right=0;align=left;spacingLeft=6;overflow=hidden;fontSize=20;" parent="Y1advHwtuHt-in-1cHeR-24" vertex="1">
                    <mxGeometry x="30" width="150" height="30" as="geometry">
                        <mxRectangle width="150" height="30" as="alternateBounds"/>
                    </mxGeometry>
                </mxCell>
                <mxCell id="Y1advHwtuHt-in-1cHeR-27" value="" style="shape=tableRow;horizontal=0;startSize=0;swimlaneHead=0;swimlaneBody=0;fillColor=none;collapsible=0;dropTarget=0;points=[[0,0.5],[1,0.5]];portConstraint=eastwest;top=0;left=0;right=0;bottom=0;fontSize=20;" parent="Y1advHwtuHt-in-1cHeR-14" vertex="1">
                    <mxGeometry y="150" width="180" height="30" as="geometry"/>
                </mxCell>
                <mxCell id="Y1advHwtuHt-in-1cHeR-28" value="" style="shape=partialRectangle;connectable=0;fillColor=none;top=0;left=0;bottom=0;right=0;editable=1;overflow=hidden;fontSize=20;" parent="Y1advHwtuHt-in-1cHeR-27" vertex="1">
                    <mxGeometry width="30" height="30" as="geometry">
                        <mxRectangle width="30" height="30" as="alternateBounds"/>
                    </mxGeometry>
                </mxCell>
                <mxCell id="Y1advHwtuHt-in-1cHeR-29" value="담당자" style="shape=partialRectangle;connectable=0;fillColor=none;top=0;left=0;bottom=0;right=0;align=left;spacingLeft=6;overflow=hidden;fontSize=20;" parent="Y1advHwtuHt-in-1cHeR-27" vertex="1">
                    <mxGeometry x="30" width="150" height="30" as="geometry">
                        <mxRectangle width="150" height="30" as="alternateBounds"/>
                    </mxGeometry>
                </mxCell>
                <mxCell id="Y1advHwtuHt-in-1cHeR-30" value="회원" style="shape=table;startSize=30;container=1;collapsible=1;childLayout=tableLayout;fixedRows=1;rowLines=0;fontStyle=1;align=center;resizeLast=1;fontSize=20;" parent="1" vertex="1">
                    <mxGeometry x="40" y="40" width="180" height="240" as="geometry"/>
                </mxCell>
                <mxCell id="Y1advHwtuHt-in-1cHeR-31" value="" style="shape=tableRow;horizontal=0;startSize=0;swimlaneHead=0;swimlaneBody=0;fillColor=none;collapsible=0;dropTarget=0;points=[[0,0.5],[1,0.5]];portConstraint=eastwest;top=0;left=0;right=0;bottom=1;fontSize=20;" parent="Y1advHwtuHt-in-1cHeR-30" vertex="1">
                    <mxGeometry y="30" width="180" height="30" as="geometry"/>
                </mxCell>
                <mxCell id="Y1advHwtuHt-in-1cHeR-32" value="PK" style="shape=partialRectangle;connectable=0;fillColor=none;top=0;left=0;bottom=0;right=0;fontStyle=1;overflow=hidden;fontSize=20;" parent="Y1advHwtuHt-in-1cHeR-31" vertex="1">
                    <mxGeometry width="30" height="30" as="geometry">
                        <mxRectangle width="30" height="30" as="alternateBounds"/>
                    </mxGeometry>
                </mxCell>
                <mxCell id="Y1advHwtuHt-in-1cHeR-33" value="회원아이디" style="shape=partialRectangle;connectable=0;fillColor=none;top=0;left=0;bottom=0;right=0;align=left;spacingLeft=6;fontStyle=5;overflow=hidden;fontSize=20;" parent="Y1advHwtuHt-in-1cHeR-31" vertex="1">
                    <mxGeometry x="30" width="150" height="30" as="geometry">
                        <mxRectangle width="150" height="30" as="alternateBounds"/>
                    </mxGeometry>
                </mxCell>
                <mxCell id="Y1advHwtuHt-in-1cHeR-34" value="" style="shape=tableRow;horizontal=0;startSize=0;swimlaneHead=0;swimlaneBody=0;fillColor=none;collapsible=0;dropTarget=0;points=[[0,0.5],[1,0.5]];portConstraint=eastwest;top=0;left=0;right=0;bottom=0;fontSize=20;" parent="Y1advHwtuHt-in-1cHeR-30" vertex="1">
                    <mxGeometry y="60" width="180" height="30" as="geometry"/>
                </mxCell>
                <mxCell id="Y1advHwtuHt-in-1cHeR-35" value="" style="shape=partialRectangle;connectable=0;fillColor=none;top=0;left=0;bottom=0;right=0;editable=1;overflow=hidden;fontSize=20;" parent="Y1advHwtuHt-in-1cHeR-34" vertex="1">
                    <mxGeometry width="30" height="30" as="geometry">
                        <mxRectangle width="30" height="30" as="alternateBounds"/>
                    </mxGeometry>
                </mxCell>
                <mxCell id="Y1advHwtuHt-in-1cHeR-36" value="비밀번호" style="shape=partialRectangle;connectable=0;fillColor=none;top=0;left=0;bottom=0;right=0;align=left;spacingLeft=6;overflow=hidden;fontSize=20;" parent="Y1advHwtuHt-in-1cHeR-34" vertex="1">
                    <mxGeometry x="30" width="150" height="30" as="geometry">
                        <mxRectangle width="150" height="30" as="alternateBounds"/>
                    </mxGeometry>
                </mxCell>
                <mxCell id="Y1advHwtuHt-in-1cHeR-37" value="" style="shape=tableRow;horizontal=0;startSize=0;swimlaneHead=0;swimlaneBody=0;fillColor=none;collapsible=0;dropTarget=0;points=[[0,0.5],[1,0.5]];portConstraint=eastwest;top=0;left=0;right=0;bottom=0;fontSize=20;" parent="Y1advHwtuHt-in-1cHeR-30" vertex="1">
                    <mxGeometry y="90" width="180" height="30" as="geometry"/>
                </mxCell>
                <mxCell id="Y1advHwtuHt-in-1cHeR-38" value="" style="shape=partialRectangle;connectable=0;fillColor=none;top=0;left=0;bottom=0;right=0;editable=1;overflow=hidden;fontSize=20;" parent="Y1advHwtuHt-in-1cHeR-37" vertex="1">
                    <mxGeometry width="30" height="30" as="geometry">
                        <mxRectangle width="30" height="30" as="alternateBounds"/>
                    </mxGeometry>
                </mxCell>
                <mxCell id="Y1advHwtuHt-in-1cHeR-39" value="이름" style="shape=partialRectangle;connectable=0;fillColor=none;top=0;left=0;bottom=0;right=0;align=left;spacingLeft=6;overflow=hidden;fontSize=20;" parent="Y1advHwtuHt-in-1cHeR-37" vertex="1">
                    <mxGeometry x="30" width="150" height="30" as="geometry">
                        <mxRectangle width="150" height="30" as="alternateBounds"/>
                    </mxGeometry>
                </mxCell>
                <mxCell id="Y1advHwtuHt-in-1cHeR-40" value="" style="shape=tableRow;horizontal=0;startSize=0;swimlaneHead=0;swimlaneBody=0;fillColor=none;collapsible=0;dropTarget=0;points=[[0,0.5],[1,0.5]];portConstraint=eastwest;top=0;left=0;right=0;bottom=0;fontSize=20;" parent="Y1advHwtuHt-in-1cHeR-30" vertex="1">
                    <mxGeometry y="120" width="180" height="30" as="geometry"/>
                </mxCell>
                <mxCell id="Y1advHwtuHt-in-1cHeR-41" value="" style="shape=partialRectangle;connectable=0;fillColor=none;top=0;left=0;bottom=0;right=0;editable=1;overflow=hidden;fontSize=20;" parent="Y1advHwtuHt-in-1cHeR-40" vertex="1">
                    <mxGeometry width="30" height="30" as="geometry">
                        <mxRectangle width="30" height="30" as="alternateBounds"/>
                    </mxGeometry>
                </mxCell>
                <mxCell id="Y1advHwtuHt-in-1cHeR-42" value="나이" style="shape=partialRectangle;connectable=0;fillColor=none;top=0;left=0;bottom=0;right=0;align=left;spacingLeft=6;overflow=hidden;fontSize=20;" parent="Y1advHwtuHt-in-1cHeR-40" vertex="1">
                    <mxGeometry x="30" width="150" height="30" as="geometry">
                        <mxRectangle width="150" height="30" as="alternateBounds"/>
                    </mxGeometry>
                </mxCell>
                <mxCell id="Y1advHwtuHt-in-1cHeR-43" value="" style="shape=tableRow;horizontal=0;startSize=0;swimlaneHead=0;swimlaneBody=0;fillColor=none;collapsible=0;dropTarget=0;points=[[0,0.5],[1,0.5]];portConstraint=eastwest;top=0;left=0;right=0;bottom=0;fontSize=20;" parent="Y1advHwtuHt-in-1cHeR-30" vertex="1">
                    <mxGeometry y="150" width="180" height="30" as="geometry"/>
                </mxCell>
                <mxCell id="Y1advHwtuHt-in-1cHeR-44" value="" style="shape=partialRectangle;connectable=0;fillColor=none;top=0;left=0;bottom=0;right=0;editable=1;overflow=hidden;fontSize=20;" parent="Y1advHwtuHt-in-1cHeR-43" vertex="1">
                    <mxGeometry width="30" height="30" as="geometry">
                        <mxRectangle width="30" height="30" as="alternateBounds"/>
                    </mxGeometry>
                </mxCell>
                <mxCell id="Y1advHwtuHt-in-1cHeR-45" value="직업" style="shape=partialRectangle;connectable=0;fillColor=none;top=0;left=0;bottom=0;right=0;align=left;spacingLeft=6;overflow=hidden;fontSize=20;" parent="Y1advHwtuHt-in-1cHeR-43" vertex="1">
                    <mxGeometry x="30" width="150" height="30" as="geometry">
                        <mxRectangle width="150" height="30" as="alternateBounds"/>
                    </mxGeometry>
                </mxCell>
                <mxCell id="Y1advHwtuHt-in-1cHeR-46" value="" style="shape=tableRow;horizontal=0;startSize=0;swimlaneHead=0;swimlaneBody=0;fillColor=none;collapsible=0;dropTarget=0;points=[[0,0.5],[1,0.5]];portConstraint=eastwest;top=0;left=0;right=0;bottom=0;fontSize=20;" parent="Y1advHwtuHt-in-1cHeR-30" vertex="1">
                    <mxGeometry y="180" width="180" height="30" as="geometry"/>
                </mxCell>
                <mxCell id="Y1advHwtuHt-in-1cHeR-47" value="" style="shape=partialRectangle;connectable=0;fillColor=none;top=0;left=0;bottom=0;right=0;editable=1;overflow=hidden;fontSize=20;" parent="Y1advHwtuHt-in-1cHeR-46" vertex="1">
                    <mxGeometry width="30" height="30" as="geometry">
                        <mxRectangle width="30" height="30" as="alternateBounds"/>
                    </mxGeometry>
                </mxCell>
                <mxCell id="Y1advHwtuHt-in-1cHeR-48" value="등급" style="shape=partialRectangle;connectable=0;fillColor=none;top=0;left=0;bottom=0;right=0;align=left;spacingLeft=6;overflow=hidden;fontSize=20;" parent="Y1advHwtuHt-in-1cHeR-46" vertex="1">
                    <mxGeometry x="30" width="150" height="30" as="geometry">
                        <mxRectangle width="150" height="30" as="alternateBounds"/>
                    </mxGeometry>
                </mxCell>
                <mxCell id="Y1advHwtuHt-in-1cHeR-49" value="" style="shape=tableRow;horizontal=0;startSize=0;swimlaneHead=0;swimlaneBody=0;fillColor=none;collapsible=0;dropTarget=0;points=[[0,0.5],[1,0.5]];portConstraint=eastwest;top=0;left=0;right=0;bottom=0;fontSize=20;" parent="Y1advHwtuHt-in-1cHeR-30" vertex="1">
                    <mxGeometry y="210" width="180" height="30" as="geometry"/>
                </mxCell>
                <mxCell id="Y1advHwtuHt-in-1cHeR-50" value="" style="shape=partialRectangle;connectable=0;fillColor=none;top=0;left=0;bottom=0;right=0;editable=1;overflow=hidden;fontSize=20;" parent="Y1advHwtuHt-in-1cHeR-49" vertex="1">
                    <mxGeometry width="30" height="30" as="geometry">
                        <mxRectangle width="30" height="30" as="alternateBounds"/>
                    </mxGeometry>
                </mxCell>
                <mxCell id="Y1advHwtuHt-in-1cHeR-51" value="적립금" style="shape=partialRectangle;connectable=0;fillColor=none;top=0;left=0;bottom=0;right=0;align=left;spacingLeft=6;overflow=hidden;fontSize=20;" parent="Y1advHwtuHt-in-1cHeR-49" vertex="1">
                    <mxGeometry x="30" width="150" height="30" as="geometry">
                        <mxRectangle width="150" height="30" as="alternateBounds"/>
                    </mxGeometry>
                </mxCell>
                <mxCell id="Y1advHwtuHt-in-1cHeR-52" value="게시글" style="shape=table;startSize=30;container=1;collapsible=1;childLayout=tableLayout;fixedRows=1;rowLines=0;fontStyle=1;align=center;resizeLast=1;fontSize=20;" parent="1" vertex="1">
                    <mxGeometry x="40" y="360" width="180" height="150" as="geometry"/>
                </mxCell>
                <mxCell id="Y1advHwtuHt-in-1cHeR-53" value="" style="shape=tableRow;horizontal=0;startSize=0;swimlaneHead=0;swimlaneBody=0;fillColor=none;collapsible=0;dropTarget=0;points=[[0,0.5],[1,0.5]];portConstraint=eastwest;top=0;left=0;right=0;bottom=1;fontSize=20;" parent="Y1advHwtuHt-in-1cHeR-52" vertex="1">
                    <mxGeometry y="30" width="180" height="30" as="geometry"/>
                </mxCell>
                <mxCell id="Y1advHwtuHt-in-1cHeR-54" value="PK" style="shape=partialRectangle;connectable=0;fillColor=none;top=0;left=0;bottom=0;right=0;fontStyle=1;overflow=hidden;fontSize=20;" parent="Y1advHwtuHt-in-1cHeR-53" vertex="1">
                    <mxGeometry width="30" height="30" as="geometry">
                        <mxRectangle width="30" height="30" as="alternateBounds"/>
                    </mxGeometry>
                </mxCell>
                <mxCell id="Y1advHwtuHt-in-1cHeR-55" value="글번호" style="shape=partialRectangle;connectable=0;fillColor=none;top=0;left=0;bottom=0;right=0;align=left;spacingLeft=6;fontStyle=5;overflow=hidden;fontSize=20;" parent="Y1advHwtuHt-in-1cHeR-53" vertex="1">
                    <mxGeometry x="30" width="150" height="30" as="geometry">
                        <mxRectangle width="150" height="30" as="alternateBounds"/>
                    </mxGeometry>
                </mxCell>
                <mxCell id="Y1advHwtuHt-in-1cHeR-56" value="" style="shape=tableRow;horizontal=0;startSize=0;swimlaneHead=0;swimlaneBody=0;fillColor=none;collapsible=0;dropTarget=0;points=[[0,0.5],[1,0.5]];portConstraint=eastwest;top=0;left=0;right=0;bottom=0;fontSize=20;" parent="Y1advHwtuHt-in-1cHeR-52" vertex="1">
                    <mxGeometry y="60" width="180" height="30" as="geometry"/>
                </mxCell>
                <mxCell id="Y1advHwtuHt-in-1cHeR-57" value="" style="shape=partialRectangle;connectable=0;fillColor=none;top=0;left=0;bottom=0;right=0;editable=1;overflow=hidden;fontSize=20;" parent="Y1advHwtuHt-in-1cHeR-56" vertex="1">
                    <mxGeometry width="30" height="30" as="geometry">
                        <mxRectangle width="30" height="30" as="alternateBounds"/>
                    </mxGeometry>
                </mxCell>
                <mxCell id="Y1advHwtuHt-in-1cHeR-58" value="제목" style="shape=partialRectangle;connectable=0;fillColor=none;top=0;left=0;bottom=0;right=0;align=left;spacingLeft=6;overflow=hidden;fontSize=20;" parent="Y1advHwtuHt-in-1cHeR-56" vertex="1">
                    <mxGeometry x="30" width="150" height="30" as="geometry">
                        <mxRectangle width="150" height="30" as="alternateBounds"/>
                    </mxGeometry>
                </mxCell>
                <mxCell id="Y1advHwtuHt-in-1cHeR-59" value="" style="shape=tableRow;horizontal=0;startSize=0;swimlaneHead=0;swimlaneBody=0;fillColor=none;collapsible=0;dropTarget=0;points=[[0,0.5],[1,0.5]];portConstraint=eastwest;top=0;left=0;right=0;bottom=0;fontSize=20;" parent="Y1advHwtuHt-in-1cHeR-52" vertex="1">
                    <mxGeometry y="90" width="180" height="30" as="geometry"/>
                </mxCell>
                <mxCell id="Y1advHwtuHt-in-1cHeR-60" value="" style="shape=partialRectangle;connectable=0;fillColor=none;top=0;left=0;bottom=0;right=0;editable=1;overflow=hidden;fontSize=20;" parent="Y1advHwtuHt-in-1cHeR-59" vertex="1">
                    <mxGeometry width="30" height="30" as="geometry">
                        <mxRectangle width="30" height="30" as="alternateBounds"/>
                    </mxGeometry>
                </mxCell>
                <mxCell id="Y1advHwtuHt-in-1cHeR-61" value="내용" style="shape=partialRectangle;connectable=0;fillColor=none;top=0;left=0;bottom=0;right=0;align=left;spacingLeft=6;overflow=hidden;fontSize=20;" parent="Y1advHwtuHt-in-1cHeR-59" vertex="1">
                    <mxGeometry x="30" width="150" height="30" as="geometry">
                        <mxRectangle width="150" height="30" as="alternateBounds"/>
                    </mxGeometry>
                </mxCell>
                <mxCell id="Y1advHwtuHt-in-1cHeR-62" value="" style="shape=tableRow;horizontal=0;startSize=0;swimlaneHead=0;swimlaneBody=0;fillColor=none;collapsible=0;dropTarget=0;points=[[0,0.5],[1,0.5]];portConstraint=eastwest;top=0;left=0;right=0;bottom=0;fontSize=20;" parent="Y1advHwtuHt-in-1cHeR-52" vertex="1">
                    <mxGeometry y="120" width="180" height="30" as="geometry"/>
                </mxCell>
                <mxCell id="Y1advHwtuHt-in-1cHeR-63" value="" style="shape=partialRectangle;connectable=0;fillColor=none;top=0;left=0;bottom=0;right=0;editable=1;overflow=hidden;fontSize=20;" parent="Y1advHwtuHt-in-1cHeR-62" vertex="1">
                    <mxGeometry width="30" height="30" as="geometry">
                        <mxRectangle width="30" height="30" as="alternateBounds"/>
                    </mxGeometry>
                </mxCell>
                <mxCell id="Y1advHwtuHt-in-1cHeR-64" value="작성일" style="shape=partialRectangle;connectable=0;fillColor=none;top=0;left=0;bottom=0;right=0;align=left;spacingLeft=6;overflow=hidden;fontSize=20;" parent="Y1advHwtuHt-in-1cHeR-62" vertex="1">
                    <mxGeometry x="30" width="150" height="30" as="geometry">
                        <mxRectangle width="150" height="30" as="alternateBounds"/>
                    </mxGeometry>
                </mxCell>
            </root>
        </mxGraphModel>
    </diagram>
    <diagram id="bmcYUV0xWfiRsVT1gLd-" name="Page-3">
        <mxGraphModel dx="1179" dy="787" grid="1" gridSize="10" guides="1" tooltips="1" connect="1" arrows="1" fold="1" page="1" pageScale="1" pageWidth="850" pageHeight="1100" math="0" shadow="0">
            <root>
                <mxCell id="0"/>
                <mxCell id="1" parent="0"/>
                <mxCell id="otOQqASyQChnQQ5-asrh-2" value="전화번호" style="ellipse;whiteSpace=wrap;html=1;" vertex="1" parent="1">
                    <mxGeometry x="40" y="230" width="120" height="60" as="geometry"/>
                </mxCell>
                <mxCell id="otOQqASyQChnQQ5-asrh-7" style="edgeStyle=none;html=1;" edge="1" parent="1" source="otOQqASyQChnQQ5-asrh-3">
                    <mxGeometry relative="1" as="geometry">
                        <mxPoint x="90" y="140" as="targetPoint"/>
                    </mxGeometry>
                </mxCell>
                <mxCell id="otOQqASyQChnQQ5-asrh-3" value="고객명" style="ellipse;whiteSpace=wrap;html=1;" vertex="1" parent="1">
                    <mxGeometry x="40" y="140" width="120" height="60" as="geometry"/>
                </mxCell>
                <mxCell id="otOQqASyQChnQQ5-asrh-4" value="이메일" style="ellipse;whiteSpace=wrap;html=1;" vertex="1" parent="1">
                    <mxGeometry x="40" y="330" width="120" height="60" as="geometry"/>
                </mxCell>
                <mxCell id="otOQqASyQChnQQ5-asrh-5" value="지역" style="ellipse;whiteSpace=wrap;html=1;" vertex="1" parent="1">
                    <mxGeometry x="42.5" y="420" width="120" height="60" as="geometry"/>
                </mxCell>
                <mxCell id="otOQqASyQChnQQ5-asrh-6" value="가입일" style="ellipse;whiteSpace=wrap;html=1;" vertex="1" parent="1">
                    <mxGeometry x="40" y="520" width="120" height="60" as="geometry"/>
                </mxCell>
                <mxCell id="otOQqASyQChnQQ5-asrh-11" value="기본주소" style="ellipse;whiteSpace=wrap;html=1;" vertex="1" parent="1">
                    <mxGeometry x="230" y="60" width="120" height="60" as="geometry"/>
                </mxCell>
                <mxCell id="otOQqASyQChnQQ5-asrh-12" value="상세주소" style="ellipse;whiteSpace=wrap;html=1;" vertex="1" parent="1">
                    <mxGeometry x="380" y="60" width="120" height="60" as="geometry"/>
                </mxCell>
                <mxCell id="otOQqASyQChnQQ5-asrh-13" value="주소" style="ellipse;whiteSpace=wrap;html=1;" vertex="1" parent="1">
                    <mxGeometry x="310" y="170" width="120" height="60" as="geometry"/>
                </mxCell>
                <mxCell id="otOQqASyQChnQQ5-asrh-15" value="고객" style="rounded=0;whiteSpace=wrap;html=1;" vertex="1" parent="1">
                    <mxGeometry x="210" y="260" width="120" height="60" as="geometry"/>
                </mxCell>
                <mxCell id="otOQqASyQChnQQ5-asrh-16" value="지역" style="rounded=0;whiteSpace=wrap;html=1;" vertex="1" parent="1">
                    <mxGeometry x="550" y="260" width="120" height="60" as="geometry"/>
                </mxCell>
                <mxCell id="otOQqASyQChnQQ5-asrh-18" value="지역명" style="ellipse;whiteSpace=wrap;html=1;" vertex="1" parent="1">
                    <mxGeometry x="770" y="310" width="120" height="60" as="geometry"/>
                </mxCell>
                <mxCell id="otOQqASyQChnQQ5-asrh-24" style="edgeStyle=none;html=1;exitX=1;exitY=0.5;exitDx=0;exitDy=0;entryX=1;entryY=0.5;entryDx=0;entryDy=0;" edge="1" parent="1">
                    <mxGeometry relative="1" as="geometry">
                        <mxPoint x="162.5" y="720" as="sourcePoint"/>
                        <mxPoint x="162.5" y="720" as="targetPoint"/>
                    </mxGeometry>
                </mxCell>
                <mxCell id="otOQqASyQChnQQ5-asrh-21" value="제품명" style="ellipse;whiteSpace=wrap;html=1;" vertex="1" parent="1">
                    <mxGeometry x="42.5" y="770" width="120" height="60" as="geometry"/>
                </mxCell>
                <mxCell id="otOQqASyQChnQQ5-asrh-23" value="가격" style="ellipse;whiteSpace=wrap;html=1;" vertex="1" parent="1">
                    <mxGeometry x="40" y="950" width="120" height="60" as="geometry"/>
                </mxCell>
                <mxCell id="otOQqASyQChnQQ5-asrh-26" value="" style="endArrow=none;html=1;entryX=0;entryY=0.5;entryDx=0;entryDy=0;exitX=1;exitY=0.5;exitDx=0;exitDy=0;" edge="1" parent="1" target="otOQqASyQChnQQ5-asrh-32">
                    <mxGeometry width="50" height="50" relative="1" as="geometry">
                        <mxPoint x="162.5" y="720" as="sourcePoint"/>
                        <mxPoint x="210" y="780" as="targetPoint"/>
                    </mxGeometry>
                </mxCell>
                <mxCell id="otOQqASyQChnQQ5-asrh-28" value="" style="endArrow=none;html=1;entryX=0;entryY=0.5;entryDx=0;entryDy=0;exitX=1;exitY=0.5;exitDx=0;exitDy=0;" edge="1" parent="1" source="otOQqASyQChnQQ5-asrh-21" target="otOQqASyQChnQQ5-asrh-32">
                    <mxGeometry width="50" height="50" relative="1" as="geometry">
                        <mxPoint x="520" y="1020" as="sourcePoint"/>
                        <mxPoint x="210" y="805" as="targetPoint"/>
                        <Array as="points"/>
                    </mxGeometry>
                </mxCell>
                <mxCell id="otOQqASyQChnQQ5-asrh-29" value="" style="endArrow=none;html=1;exitX=1;exitY=0.5;exitDx=0;exitDy=0;" edge="1" parent="1">
                    <mxGeometry width="50" height="50" relative="1" as="geometry">
                        <mxPoint x="162.5" y="890" as="sourcePoint"/>
                        <mxPoint x="210" y="800" as="targetPoint"/>
                    </mxGeometry>
                </mxCell>
                <mxCell id="otOQqASyQChnQQ5-asrh-32" value="제품" style="rounded=0;whiteSpace=wrap;html=1;" vertex="1" parent="1">
                    <mxGeometry x="210" y="770" width="120" height="60" as="geometry"/>
                </mxCell>
                <mxCell id="otOQqASyQChnQQ5-asrh-34" value="" style="endArrow=none;html=1;entryX=0;entryY=0.5;entryDx=0;entryDy=0;exitX=1;exitY=0.5;exitDx=0;exitDy=0;" edge="1" parent="1" source="otOQqASyQChnQQ5-asrh-23" target="otOQqASyQChnQQ5-asrh-32">
                    <mxGeometry width="50" height="50" relative="1" as="geometry">
                        <mxPoint x="520" y="1020" as="sourcePoint"/>
                        <mxPoint x="570" y="970" as="targetPoint"/>
                        <Array as="points"/>
                    </mxGeometry>
                </mxCell>
                <mxCell id="otOQqASyQChnQQ5-asrh-35" value="" style="endArrow=none;html=1;exitX=1;exitY=0.5;exitDx=0;exitDy=0;entryX=0;entryY=0.5;entryDx=0;entryDy=0;" edge="1" parent="1" source="otOQqASyQChnQQ5-asrh-4" target="otOQqASyQChnQQ5-asrh-15">
                    <mxGeometry width="50" height="50" relative="1" as="geometry">
                        <mxPoint x="162.5" y="340" as="sourcePoint"/>
                        <mxPoint x="210" y="290" as="targetPoint"/>
                    </mxGeometry>
                </mxCell>
                <mxCell id="otOQqASyQChnQQ5-asrh-37" value="" style="endArrow=none;html=1;entryX=0;entryY=0.5;entryDx=0;entryDy=0;exitX=1;exitY=0.5;exitDx=0;exitDy=0;" edge="1" parent="1" source="otOQqASyQChnQQ5-asrh-5" target="otOQqASyQChnQQ5-asrh-15">
                    <mxGeometry width="50" height="50" relative="1" as="geometry">
                        <mxPoint x="162.5" y="450" as="sourcePoint"/>
                        <mxPoint x="212.5" y="400" as="targetPoint"/>
                    </mxGeometry>
                </mxCell>
                <mxCell id="otOQqASyQChnQQ5-asrh-38" value="" style="endArrow=none;html=1;entryX=0;entryY=0.5;entryDx=0;entryDy=0;exitX=1;exitY=0.5;exitDx=0;exitDy=0;" edge="1" parent="1" source="otOQqASyQChnQQ5-asrh-6" target="otOQqASyQChnQQ5-asrh-15">
                    <mxGeometry width="50" height="50" relative="1" as="geometry">
                        <mxPoint x="190" y="520" as="sourcePoint"/>
                        <mxPoint x="212.5" y="500" as="targetPoint"/>
                    </mxGeometry>
                </mxCell>
                <mxCell id="otOQqASyQChnQQ5-asrh-39" value="관리" style="shape=rhombus;perimeter=rhombusPerimeter;whiteSpace=wrap;html=1;align=center;" vertex="1" parent="1">
                    <mxGeometry x="380" y="260" width="120" height="60" as="geometry"/>
                </mxCell>
                <mxCell id="otOQqASyQChnQQ5-asrh-40" value="구매" style="shape=rhombus;perimeter=rhombusPerimeter;whiteSpace=wrap;html=1;align=center;" vertex="1" parent="1">
                    <mxGeometry x="210" y="540" width="120" height="60" as="geometry"/>
                </mxCell>
                <mxCell id="otOQqASyQChnQQ5-asrh-41" value="" style="endArrow=none;html=1;exitX=1;exitY=0.5;exitDx=0;exitDy=0;entryX=0;entryY=0.5;entryDx=0;entryDy=0;" edge="1" parent="1" source="otOQqASyQChnQQ5-asrh-4" target="otOQqASyQChnQQ5-asrh-15">
                    <mxGeometry width="50" height="50" relative="1" as="geometry">
                        <mxPoint x="160" y="360" as="sourcePoint"/>
                        <mxPoint x="210" y="290" as="targetPoint"/>
                        <Array as="points">
                            <mxPoint x="190" y="320"/>
                        </Array>
                    </mxGeometry>
                </mxCell>
                <mxCell id="otOQqASyQChnQQ5-asrh-42" value="" style="endArrow=none;html=1;entryX=0;entryY=0.5;entryDx=0;entryDy=0;" edge="1" parent="1" target="otOQqASyQChnQQ5-asrh-15">
                    <mxGeometry width="50" height="50" relative="1" as="geometry">
                        <mxPoint x="160" y="170" as="sourcePoint"/>
                        <mxPoint x="210" y="120" as="targetPoint"/>
                    </mxGeometry>
                </mxCell>
                <mxCell id="otOQqASyQChnQQ5-asrh-43" value="" style="endArrow=none;html=1;entryX=0;entryY=0.5;entryDx=0;entryDy=0;" edge="1" parent="1" target="otOQqASyQChnQQ5-asrh-15">
                    <mxGeometry width="50" height="50" relative="1" as="geometry">
                        <mxPoint x="160" y="260" as="sourcePoint"/>
                        <mxPoint x="210" y="210" as="targetPoint"/>
                    </mxGeometry>
                </mxCell>
                <mxCell id="otOQqASyQChnQQ5-asrh-44" value="" style="endArrow=none;html=1;entryX=0;entryY=0.5;entryDx=0;entryDy=0;exitX=1;exitY=0.5;exitDx=0;exitDy=0;" edge="1" parent="1" target="otOQqASyQChnQQ5-asrh-15">
                    <mxGeometry width="50" height="50" relative="1" as="geometry">
                        <mxPoint x="160" y="90" as="sourcePoint"/>
                        <mxPoint x="212.5" y="40" as="targetPoint"/>
                    </mxGeometry>
                </mxCell>
                <mxCell id="otOQqASyQChnQQ5-asrh-45" value="" style="endArrow=none;html=1;exitX=0.5;exitY=0;exitDx=0;exitDy=0;" edge="1" parent="1" source="otOQqASyQChnQQ5-asrh-13">
                    <mxGeometry width="50" height="50" relative="1" as="geometry">
                        <mxPoint x="390" y="170" as="sourcePoint"/>
                        <mxPoint x="440" y="120" as="targetPoint"/>
                    </mxGeometry>
                </mxCell>
                <mxCell id="otOQqASyQChnQQ5-asrh-46" value="" style="endArrow=none;html=1;entryX=0.5;entryY=1;entryDx=0;entryDy=0;exitX=0.5;exitY=0;exitDx=0;exitDy=0;" edge="1" parent="1" source="otOQqASyQChnQQ5-asrh-13" target="otOQqASyQChnQQ5-asrh-11">
                    <mxGeometry width="50" height="50" relative="1" as="geometry">
                        <mxPoint x="300" y="170" as="sourcePoint"/>
                        <mxPoint x="350" y="120" as="targetPoint"/>
                    </mxGeometry>
                </mxCell>
                <mxCell id="otOQqASyQChnQQ5-asrh-47" value="" style="endArrow=none;html=1;entryX=0.5;entryY=1;entryDx=0;entryDy=0;" edge="1" parent="1" target="otOQqASyQChnQQ5-asrh-13">
                    <mxGeometry width="50" height="50" relative="1" as="geometry">
                        <mxPoint x="270" y="260" as="sourcePoint"/>
                        <mxPoint x="320" y="210" as="targetPoint"/>
                    </mxGeometry>
                </mxCell>
                <mxCell id="otOQqASyQChnQQ5-asrh-48" value="" style="endArrow=none;html=1;exitX=1;exitY=0.5;exitDx=0;exitDy=0;" edge="1" parent="1" source="otOQqASyQChnQQ5-asrh-16">
                    <mxGeometry width="50" height="50" relative="1" as="geometry">
                        <mxPoint x="720" y="285" as="sourcePoint"/>
                        <mxPoint x="770" y="235" as="targetPoint"/>
                    </mxGeometry>
                </mxCell>
                <mxCell id="otOQqASyQChnQQ5-asrh-49" value="" style="endArrow=none;html=1;entryX=0;entryY=0.5;entryDx=0;entryDy=0;exitX=1;exitY=0.5;exitDx=0;exitDy=0;" edge="1" parent="1" source="otOQqASyQChnQQ5-asrh-16" target="otOQqASyQChnQQ5-asrh-18">
                    <mxGeometry width="50" height="50" relative="1" as="geometry">
                        <mxPoint x="690" y="360" as="sourcePoint"/>
                        <mxPoint x="740" y="310" as="targetPoint"/>
                    </mxGeometry>
                </mxCell>
                <mxCell id="otOQqASyQChnQQ5-asrh-61" value="" style="endArrow=none;html=1;rounded=0;entryX=1;entryY=0.5;entryDx=0;entryDy=0;exitX=0;exitY=0.5;exitDx=0;exitDy=0;" edge="1" parent="1" source="otOQqASyQChnQQ5-asrh-39" target="otOQqASyQChnQQ5-asrh-15">
                    <mxGeometry relative="1" as="geometry">
                        <mxPoint x="470" y="500" as="sourcePoint"/>
                        <mxPoint x="630" y="500" as="targetPoint"/>
                    </mxGeometry>
                </mxCell>
                <mxCell id="otOQqASyQChnQQ5-asrh-62" value="N" style="resizable=0;html=1;align=right;verticalAlign=bottom;" connectable="0" vertex="1" parent="otOQqASyQChnQQ5-asrh-61">
                    <mxGeometry x="1" relative="1" as="geometry">
                        <mxPoint x="10" as="offset"/>
                    </mxGeometry>
                </mxCell>
                <mxCell id="otOQqASyQChnQQ5-asrh-63" value="" style="endArrow=none;html=1;rounded=0;exitX=1;exitY=0.5;exitDx=0;exitDy=0;entryX=0;entryY=0.5;entryDx=0;entryDy=0;" edge="1" parent="1" source="otOQqASyQChnQQ5-asrh-39" target="otOQqASyQChnQQ5-asrh-16">
                    <mxGeometry relative="1" as="geometry">
                        <mxPoint x="470" y="500" as="sourcePoint"/>
                        <mxPoint x="630" y="500" as="targetPoint"/>
                    </mxGeometry>
                </mxCell>
                <mxCell id="otOQqASyQChnQQ5-asrh-64" value="1" style="resizable=0;html=1;align=right;verticalAlign=bottom;" connectable="0" vertex="1" parent="otOQqASyQChnQQ5-asrh-63">
                    <mxGeometry x="1" relative="1" as="geometry"/>
                </mxCell>
                <mxCell id="otOQqASyQChnQQ5-asrh-65" value="" style="endArrow=none;html=1;rounded=0;exitX=0.5;exitY=1;exitDx=0;exitDy=0;entryX=0.5;entryY=0;entryDx=0;entryDy=0;" edge="1" parent="1" source="otOQqASyQChnQQ5-asrh-40" target="otOQqASyQChnQQ5-asrh-32">
                    <mxGeometry relative="1" as="geometry">
                        <mxPoint x="470" y="500" as="sourcePoint"/>
                        <mxPoint x="630" y="500" as="targetPoint"/>
                    </mxGeometry>
                </mxCell>
                <mxCell id="otOQqASyQChnQQ5-asrh-66" value="N" style="resizable=0;html=1;align=right;verticalAlign=bottom;" connectable="0" vertex="1" parent="otOQqASyQChnQQ5-asrh-65">
                    <mxGeometry x="1" relative="1" as="geometry">
                        <mxPoint x="-10" as="offset"/>
                    </mxGeometry>
                </mxCell>
                <mxCell id="otOQqASyQChnQQ5-asrh-67" value="" style="endArrow=none;html=1;rounded=0;exitX=0.5;exitY=0;exitDx=0;exitDy=0;entryX=0.5;entryY=1;entryDx=0;entryDy=0;" edge="1" parent="1" source="otOQqASyQChnQQ5-asrh-40" target="otOQqASyQChnQQ5-asrh-15">
                    <mxGeometry relative="1" as="geometry">
                        <mxPoint x="280" y="540" as="sourcePoint"/>
                        <mxPoint x="280" y="320" as="targetPoint"/>
                    </mxGeometry>
                </mxCell>
                <mxCell id="otOQqASyQChnQQ5-asrh-68" value="M" style="resizable=0;html=1;align=right;verticalAlign=bottom;" connectable="0" vertex="1" parent="otOQqASyQChnQQ5-asrh-67">
                    <mxGeometry x="1" relative="1" as="geometry">
                        <mxPoint x="-10" y="20" as="offset"/>
                    </mxGeometry>
                </mxCell>
                <mxCell id="otOQqASyQChnQQ5-asrh-69" value="구매수량" style="ellipse;whiteSpace=wrap;html=1;" vertex="1" parent="1">
                    <mxGeometry x="365" y="480" width="120" height="60" as="geometry"/>
                </mxCell>
                <mxCell id="otOQqASyQChnQQ5-asrh-70" value="구매일자" style="ellipse;whiteSpace=wrap;html=1;" vertex="1" parent="1">
                    <mxGeometry x="365" y="580" width="120" height="60" as="geometry"/>
                </mxCell>
                <mxCell id="otOQqASyQChnQQ5-asrh-71" value="" style="endArrow=none;html=1;entryX=0;entryY=0.5;entryDx=0;entryDy=0;" edge="1" parent="1" target="otOQqASyQChnQQ5-asrh-69">
                    <mxGeometry width="50" height="50" relative="1" as="geometry">
                        <mxPoint x="330" y="570" as="sourcePoint"/>
                        <mxPoint x="380" y="520" as="targetPoint"/>
                    </mxGeometry>
                </mxCell>
                <mxCell id="otOQqASyQChnQQ5-asrh-72" value="" style="endArrow=none;html=1;exitX=1;exitY=0.5;exitDx=0;exitDy=0;" edge="1" parent="1" source="otOQqASyQChnQQ5-asrh-40">
                    <mxGeometry width="50" height="50" relative="1" as="geometry">
                        <mxPoint x="315" y="660" as="sourcePoint"/>
                        <mxPoint x="365" y="610" as="targetPoint"/>
                    </mxGeometry>
                </mxCell>
                <mxCell id="otOQqASyQChnQQ5-asrh-73" value="제품코드" style="ellipse;whiteSpace=wrap;html=1;align=center;fontStyle=4;" vertex="1" parent="1">
                    <mxGeometry x="40" y="690" width="120" height="60" as="geometry"/>
                </mxCell>
                <mxCell id="otOQqASyQChnQQ5-asrh-74" value="고객코드" style="ellipse;whiteSpace=wrap;html=1;align=center;fontStyle=4;" vertex="1" parent="1">
                    <mxGeometry x="40" y="60" width="120" height="60" as="geometry"/>
                </mxCell>
                <mxCell id="otOQqASyQChnQQ5-asrh-75" value="제품색상" style="ellipse;shape=doubleEllipse;margin=3;whiteSpace=wrap;html=1;align=center;" vertex="1" parent="1">
                    <mxGeometry x="42.5" y="860" width="120" height="60" as="geometry"/>
                </mxCell>
                <mxCell id="otOQqASyQChnQQ5-asrh-76" value="지역코드" style="ellipse;whiteSpace=wrap;html=1;align=center;fontStyle=4;" vertex="1" parent="1">
                    <mxGeometry x="770" y="200" width="120" height="60" as="geometry"/>
                </mxCell>
            </root>
        </mxGraphModel>
    </diagram>
</mxfile>